<svg width="16.000000" height="16.000000" viewBox="0 0 16 16" fill="none" xmlns="http://www.w3.org/2000/svg" xmlns:xlink="http://www.w3.org/1999/xlink">
	<desc>
			Created with Pixso.
	</desc>
	<defs>
		<clipPath id="clip1_422">
			<rect id="IMAGE" rx="0.000000" width="15.000000" height="15.000000" transform="translate(0.500000 0.500000)" fill="white" fill-opacity="0"/>
		</clipPath>
	</defs>
	<g clip-path="url(#clip1_422)">
		<path id="Vector" d="M15.11 0L0.88 0C0.39 0 0 0.39 0 0.88L0 15.11C0 15.6 0.39 16 0.88 16L8.54 16L8.54 9.8L6.46 9.8L6.46 7.38L8.54 7.38L8.54 5.6C8.54 3.54 9.8 2.41 11.65 2.41C12.53 2.41 13.29 2.48 13.51 2.51L13.51 4.67L12.23 4.67C11.23 4.67 11.03 5.14 11.03 5.84L11.03 7.38L13.43 7.38L13.11 9.8L11.03 9.8L11.03 15.99L15.11 15.99C15.6 15.99 15.99 15.6 15.99 15.11L15.99 0.88C15.99 0.39 15.6 0 15.11 0Z" fill="#FFFFFF" fill-opacity="1.000000" fill-rule="nonzero"/>
	</g>
</svg>
